<?xml version="1.0" encoding="utf-8"?>
<!-- Generator: Adobe Illustrator 22.1.0, SVG Export Plug-In . SVG Version: 6.00 Build 0)  -->
<!DOCTYPE svg PUBLIC "-//W3C//DTD SVG 1.1//EN" "http://www.w3.org/Graphics/SVG/1.1/DTD/svg11.dtd">
<svg version="1.1" id="Ellipse_2_xA0_Image_1_" xmlns="http://www.w3.org/2000/svg" xmlns:xlink="http://www.w3.org/1999/xlink"
	 x="0px" y="0px" viewBox="0 0 159.1 49.9" style="enable-background:new 0 0 159.1 49.9;" xml:space="preserve">
<style type="text/css">
	.st0{fill:#CC8F31;}
	.st1{fill:#B6D3FB;}
	.st2{fill:#5E80CF;}
	.st3{enable-background:new    ;}
	.st4{fill:#33415B;}
	.st5{fill:#8DA3CC;}
</style>
<image style="display:none;overflow:visible;enable-background:new    ;" width="165" height="56" id="Ellipse_2_xA0_Image" xlink:href="C:\Users\cbuzzell\Desktop\77A15AB0.png"  transform="matrix(1 0 0 1 -7.6667 3.1133)">
</image>
<path class="st0" d="M37.5,30c-0.2,8-0.2,12.9,8.3,18.6c-0.4,0-21.3,0.2-27,0.2C8.4,48.7,0,40.3,0,30s8.4-18.7,18.7-18.7
	S37.5,19.6,37.5,30z"/>
<path class="st1" d="M17.8,24.5c0.3,10.4,11,16.8,0.2,24.2c0.5,0,16.3,0.2,23.5,0.2c13.1,0,23.7-10.9,23.7-24.4S54.7,0.2,41.6,0.2
	S17.8,11.1,17.8,24.5z"/>
<path class="st2" d="M41.3,32.2c0.2,7.1-7.7,16.7-7.7,16.7s19.2-0.2,24.2-0.2c9.2,0,16.6-7.4,16.6-16.6S67,15.5,57.8,15.5
	S41.3,23,41.3,32.2z"/>
<g class="st3">
	<path class="st4" d="M95.2,37.1h-2.6L91.7,26h-2.5l-0.7,11.1h-2.4l2.6-37h2.9L95.2,37.1z M89.4,23.2h2L90.2,7.5L89.4,23.2z"/>
	<path class="st4" d="M98.9,37.1h-2.2v-37h2.2V37.1z"/>
	<path class="st4" d="M103,37.1h-2.2v-37h2.2V37.1z"/>
	<path class="st4" d="M110,5.3V5c-0.1-1.5-0.1-1.5-0.2-1.8c-0.2-0.4-0.7-0.7-1.1-0.7c-1.1,0-1.4,0.7-1.4,2.8v26.9
		c0,1.8,0.4,2.5,1.4,2.5c1,0,1.4-0.7,1.4-2.7v-8.1h2.3v7.9c0,1.8-0.2,3-0.7,3.8c-0.7,1.1-1.8,1.8-3,1.8c-1.5,0-2.8-0.9-3.3-2.4
		c-0.3-0.7-0.4-1.8-0.4-3.4V5.4c0-3.6,1.3-5.4,3.8-5.4c2.5,0,3.7,1.7,3.7,5.5v7.8H110V5.3z"/>
	<path class="st4" d="M116.2,37.1H114v-37h2.2V37.1z"/>
	<path class="st4" d="M125.2,31.9c0,3.9-1,5.5-3.7,5.5c-2.4,0-3.4-1.4-3.4-4.8V16.9c0-3.4,1-4.7,3.6-4.7c2.5,0,3.5,1.3,3.5,4.4V31.9
		z M120.4,32.9c0,1.5,0.4,2.1,1.3,2.1c0.9,0,1.2-0.6,1.2-2.2V17c0-1.8-0.2-2.3-1.2-2.3c-0.9,0-1.3,0.6-1.3,2.2V32.9z"/>
	<path class="st4" d="M131.4,37.1V36c-0.8,0.9-1.3,1.2-2.1,1.2c-1.5,0-2.2-1.3-2.2-3.8V12.6h2.2v19.9c0,1.9,0.2,2.5,0.9,2.5
		c0.5,0,1-0.4,1.2-1V12.6h2.2v24.5H131.4z"/>
	<path class="st4" d="M137.6,12.6v0.9c0.8-0.8,1.2-1.1,2-1.1c1.6,0,2.3,1.2,2.3,3.9v20.8h-2.2v-20c0-1.9-0.2-2.5-0.9-2.5
		c-0.6,0-1,0.5-1.2,1.4v21.1h-2.2V12.6H137.6z"/>
	<path class="st4" d="M150.4,37.1h-1.9l-0.2-0.9c-0.7,0.7-1.3,1.1-2,1.1c-1.7,0-2.5-1.4-2.5-4.7V17.1c0-3.3,0.7-4.6,2.5-4.6
		c0.7,0,1.1,0.2,1.8,0.8v-13h2.3V37.1z M148.2,15.7c0-0.1-0.1-0.1-0.1-0.1c-0.2-0.2-0.3-0.4-0.5-0.6c-0.1-0.1-0.3-0.2-0.5-0.2
		c-0.8,0-1,0.6-1,2.5v15.3c0,1.7,0.2,2.3,1,2.3c0.4,0,0.5-0.1,1.1-0.8V15.7z"/>
	<path class="st4" d="M156.9,16.6c0-1.5-0.3-2-1.1-2c-0.4,0-0.8,0.2-1,0.5s-0.3,1.1-0.2,1.3c0,0.1,0,0.1,0,0.2v4.1c0,0,0,0.1,0,0.3
		c-0.1,1,0.2,1.4,1.1,2.1l1.5,1.1c1.4,0.9,1.7,1.7,1.7,3.4v5.3c0,3-1.1,4.5-3.3,4.5c-2.2,0-3.2-1.4-3.2-4.4v-4.5h2.2V33
		c0,1.5,0.2,1.9,1.1,1.9c0.9,0,1-0.3,1-2.1v-4.5c0-1.5-0.1-1.8-1-2.4l-1.4-0.9c-1.6-1.2-2-1.9-1.9-3.9v-3.9c0-1.8,0.1-2.7,0.5-3.3
		c0.6-1.1,1.6-1.6,2.9-1.6c2.2,0,3.3,1.4,3.3,4.3v4.4h-2.2V16.6z"/>
</g>
<g class="st3">
	<path class="st5" d="M88.7,49.8h-0.8l-0.3-2.9h-0.7l-0.2,2.9H86l0.8-9.7h0.8L88.7,49.8z M87,46.2h0.6l-0.3-4.1L87,46.2z"/>
	<path class="st5" d="M94.1,40.1c0.9,0,1.3,0.4,1.3,1.3v2.8c0,0.9-0.4,1.4-1.1,1.4h-0.1h-0.3v4.3h-0.7v-9.7H94.1z M93.9,44.9h0.2
		c0.4,0,0.5-0.1,0.5-0.7v-2.7c0-0.5-0.1-0.7-0.6-0.7c-0.1,0-0.1,0-0.2,0V44.9z"/>
	<path class="st5" d="M100.8,40.1c0.9,0,1.3,0.4,1.3,1.3v2.8c0,0.9-0.4,1.4-1.1,1.4H101h-0.3v4.3h-0.7v-9.7H100.8z M100.6,44.9h0.2
		c0.4,0,0.5-0.1,0.5-0.7v-2.7c0-0.5-0.1-0.7-0.6-0.7c-0.1,0-0.1,0-0.2,0V44.9z"/>
	<path class="st5" d="M113.1,41.4L113.1,41.4c0-0.5-0.1-0.6-0.4-0.6s-0.4,0.2-0.4,0.6v0.1v2.4v0c0,0.4,0.1,0.5,0.3,0.8l0.8,0.8
		c0.3,0.3,0.4,0.5,0.4,1v2.1c0,0.5,0,0.8-0.2,1c-0.2,0.3-0.5,0.5-0.9,0.5c-0.8,0-1.1-0.5-1.1-1.4v-1.8h0.7v1.9
		c0,0.6,0.1,0.7,0.4,0.7c0.2,0,0.3-0.1,0.4-0.3c0-0.1,0-0.1,0-0.5v-2c0-0.5,0-0.6-0.3-0.8l-0.7-0.6c-0.4-0.5-0.6-0.7-0.5-1.4v-2.1
		c0-1,0.3-1.5,1.1-1.5c0.7,0,1,0.4,1,1.3v2h-0.7V41.4z"/>
	<path class="st5" d="M120.4,40.8h-0.8v9h-0.7v-9h-0.7v-0.7h2.1V40.8z"/>
	<path class="st5" d="M127.2,49.8h-0.8l-0.3-2.9h-0.7l-0.2,2.9h-0.7l0.8-9.7h0.8L127.2,49.8z M125.5,46.2h0.6l-0.3-4.1L125.5,46.2z"
		/>
	<path class="st5" d="M132.7,40.1c0.9,0,1.2,0.5,1.2,1.5v2.2c0,0.7-0.2,1-0.6,1c0.5,0.2,0.6,0.5,0.6,1.4v2.7c0,0.6,0,0.7,0.2,0.9
		h-0.7c-0.1-0.1-0.2-0.4-0.2-0.7v-3c0-0.6-0.2-0.8-0.7-0.8h-0.1v4.6h-0.7v-9.7H132.7z M132.4,44.5c0.1,0,0.1,0,0.2,0
		c0.5,0,0.6-0.2,0.6-0.8v-2.2c0-0.5-0.2-0.7-0.6-0.7c-0.1,0-0.1,0-0.2,0V44.5z"/>
	<path class="st5" d="M140.5,40.8h-0.8v9H139v-9h-0.7v-0.7h2.1V40.8z"/>
	<path class="st5" d="M147.3,48.4c0,0.6-0.1,0.9-0.2,1.1c-0.2,0.3-0.6,0.4-0.9,0.4c-0.4,0-0.8-0.2-1-0.5c-0.1-0.2-0.2-0.6-0.2-1.1
		v-8.1h0.7v8.3c0,0.6,0.1,0.8,0.4,0.8s0.4-0.2,0.4-0.9v-8.2h0.7V48.4z"/>
	<path class="st5" d="M152.8,40.1c0.9,0,1.3,0.4,1.3,1.3v2.8c0,0.9-0.4,1.4-1.1,1.4h-0.1h-0.3v4.3h-0.7v-9.7H152.8z M152.6,44.9h0.2
		c0.4,0,0.5-0.1,0.5-0.7v-2.7c0-0.5-0.1-0.7-0.6-0.7c-0.1,0-0.1,0-0.2,0V44.9z"/>
</g>
</svg>
