<?xml version="1.0" encoding="utf-8"?>
<!-- Generator: Adobe Illustrator 22.1.0, SVG Export Plug-In . SVG Version: 6.00 Build 0)  -->
<!DOCTYPE svg PUBLIC "-//W3C//DTD SVG 1.1//EN" "http://www.w3.org/Graphics/SVG/1.1/DTD/svg11.dtd">
<svg version="1.1" id="Ellipse_2_xA0_Image_1_" xmlns="http://www.w3.org/2000/svg" xmlns:xlink="http://www.w3.org/1999/xlink"
	 x="0px" y="0px" viewBox="0 0 163.2 62.3" style="enable-background:new 0 0 163.2 62.3;" xml:space="preserve">
<style type="text/css">
	.st0{fill:#CC8F31;}
	.st1{fill:#B6D3FB;}
	.st2{fill:#5E80CF;}
	.st3{fill:#33415B;}
	.st4{font-family:'BeeThree';}
	.st5{font-size:55.3992px;}
	.st6{fill:#8DA3CC;}
	.st7{font-size:14.577px;}
	.st8{letter-spacing:4.2;}
</style>
<image style="display:none;overflow:visible;enable-background:new    ;" width="165" height="56" id="Ellipse_2_xA0_Image" xlink:href="C:\Users\cbuzzell\Desktop\77A15AB0.png"  transform="matrix(1 0 0 1 -5.6667 9.167)">
</image>
<path class="st0" d="M39.5,36.1c-0.2,8-0.2,12.9,8.3,18.6c-0.4,0-21.3,0.2-27,0.2C10.4,54.8,2,46.4,2,36.1s8.4-18.7,18.7-18.7
	S39.5,25.7,39.5,36.1z"/>
<path class="st1" d="M19.8,30.6C20.1,41,30.8,47.4,20,54.8c0.5,0,16.3,0.2,23.5,0.2c13.1,0,23.7-10.9,23.7-24.4S56.7,6.3,43.6,6.3
	S19.8,17.2,19.8,30.6z"/>
<path class="st2" d="M43.3,38.3c0.2,7.1-7.7,16.7-7.7,16.7s19.2-0.2,24.2-0.2c9.2,0,16.6-7.4,16.6-16.6s-7.4-16.6-16.6-16.6
	S43.3,29.1,43.3,38.3z"/>
<text transform="matrix(0.8458 0 0 1 87.4994 43.1748)" class="st3 st4 st5">AllClounds</text>
<text transform="matrix(0.9542 0 0 1 87.8333 55.8975)" class="st6 st4 st7 st8">APP STARTUP</text>
</svg>
